<svg width="186" height="69" viewBox="0 0 186 69" fill="none" xmlns="http://www.w3.org/2000/svg">
<g clip-path="url(#clip0_0_322)">
<path d="M36.7829 15.3143V7.65842C36.7829 6.81284 36.0971 6.12726 35.251 6.12726H33.719V1.53375C33.719 0.68816 33.0332 0.0025787 32.187 0.0025787C30.0182 0.0025787 26.6967 -0.163553 22.7976 2.1711C20.3739 1.45001 18.6597 1.53375 16.8674 1.53375C16.0213 1.53375 15.3354 2.21933 15.3354 3.06492V6.12726H13.8035C12.9573 6.12726 12.2715 6.81284 12.2715 7.65842V15.3143C12.2715 21.5501 16.9579 26.7123 22.9952 27.4681V47.4688C22.9952 48.3144 23.6811 49 24.5272 49C25.3733 49 26.0592 48.3144 26.0592 47.4688V42.1097H28.3571C33.0031 42.1097 36.7829 38.3319 36.7829 33.6883V31.3915C36.7829 30.546 36.0971 29.8604 35.251 29.8604H31.4211C29.3859 29.8604 27.517 30.5853 26.0592 31.7903V27.4674C32.0876 26.7212 36.7829 21.5847 36.7829 15.3143ZM33.719 15.3143C33.719 18.0393 32.5133 20.5004 30.6076 22.1879C30.6377 21.9422 30.6551 21.6926 30.6551 21.4389C30.6551 17.5614 29.2047 14.0165 26.8187 11.3159C28.8415 9.93633 31.2399 9.18959 33.719 9.18959V15.3143ZM30.6551 3.06492V6.43617C30.372 6.49378 30.0908 6.55952 29.812 6.63292C28.8182 5.52101 27.6847 4.57369 26.4472 3.8082C27.7848 3.31938 29.2049 3.06492 30.6551 3.06492ZM18.3994 4.59609C21.4429 4.59609 24.3985 5.70685 26.6972 7.82915C25.9385 8.22046 25.2111 8.67665 24.5227 9.1939C22.7415 7.85547 20.6602 6.89562 18.3994 6.43512V4.59609ZM15.3354 15.3143V9.18959C22.0932 9.18959 27.5911 14.6846 27.5911 21.4389C27.5911 23.15 26.1774 24.5443 24.4467 24.4998C19.0647 24.367 15.3354 20.0933 15.3354 15.3143ZM31.4211 32.9227H33.719V33.6883C33.719 36.6433 31.3137 39.0474 28.3571 39.0474H26.0592V38.2818C26.0592 35.3268 28.4646 32.9227 31.4211 32.9227Z" fill="white"/>
</g>
<path d="M54.8885 22.7814H48.4303V26.8411H56.0584V30H44.3238V12.9655H56.0818V16.1361H48.4303V19.7278H54.8885V22.7814ZM64.3995 18.6281L67.184 12.9655H71.8755L67.1138 21.4126L72.0042 30H67.2659L64.3995 24.2321L61.5332 30H56.8066L61.6853 21.4126L56.9353 12.9655H61.6151L64.3995 18.6281ZM77.7715 24.2204V30H73.6649V12.9655H80.4624C81.7649 12.9655 82.9154 13.2073 83.9137 13.6909C84.9199 14.1667 85.6959 14.8491 86.2419 15.7383C86.7957 16.6197 87.0726 17.6219 87.0726 18.7451C87.0726 20.4064 86.4759 21.7362 85.2826 22.7346C84.097 23.7252 82.4669 24.2204 80.3922 24.2204H77.7715ZM77.7715 21.0499H80.4624C81.2579 21.0499 81.8624 20.851 82.2758 20.4532C82.697 20.0554 82.9076 19.4938 82.9076 18.7685C82.9076 17.9729 82.6931 17.3372 82.2641 16.8615C81.8351 16.3857 81.2501 16.1439 80.5092 16.1361H77.7715V21.0499ZM93.6939 26.8411H100.842V30H89.5874V12.9655H93.6939V26.8411ZM116.566 21.8337C116.566 23.4951 116.258 24.9653 115.642 26.2445C115.025 27.5236 114.148 28.5103 113.009 29.2044C111.878 29.8908 110.587 30.234 109.137 30.234C107.686 30.234 106.399 29.9025 105.276 29.2395C104.153 28.5688 103.275 27.6133 102.643 26.3732C102.019 25.133 101.692 23.7096 101.661 22.1028V21.1435C101.661 19.4743 101.965 18.0041 102.573 16.7328C103.189 15.4536 104.067 14.467 105.206 13.7728C106.352 13.0786 107.655 12.7315 109.113 12.7315C110.556 12.7315 111.843 13.0747 112.974 13.7611C114.105 14.4475 114.982 15.4263 115.606 16.6977C116.238 17.9612 116.558 19.4119 116.566 21.0499V21.8337ZM112.389 21.1201C112.389 19.4275 112.104 18.1445 111.535 17.2709C110.973 16.3896 110.166 15.9489 109.113 15.9489C107.054 15.9489 105.966 17.4932 105.849 20.5819L105.837 21.8337C105.837 23.5029 106.114 24.7859 106.668 25.6829C107.222 26.5798 108.045 27.0283 109.137 27.0283C110.174 27.0283 110.973 26.5876 111.535 25.7063C112.097 24.8249 112.381 23.5575 112.389 21.9039V21.1201ZM125.328 23.9865H123.105V30H118.999V12.9655H125.703C127.723 12.9655 129.302 13.414 130.441 14.311C131.58 15.2079 132.149 16.4754 132.149 18.1133C132.149 19.2989 131.907 20.2816 131.424 21.0616C130.948 21.8415 130.199 22.4733 129.177 22.9569L132.734 29.8245V30H128.335L125.328 23.9865ZM123.105 20.8159H125.703C126.482 20.8159 127.067 20.6131 127.457 20.2075C127.855 19.7941 128.054 19.2209 128.054 18.4877C128.054 17.7545 127.855 17.1812 127.457 16.7679C127.06 16.3467 126.475 16.1361 125.703 16.1361H123.105V20.8159ZM145.509 22.7814H139.051V26.8411H146.679V30H134.945V12.9655H146.703V16.1361H139.051V19.7278H145.509V22.7814ZM48.6994 49H44.6046V31.9655H48.6994V49ZM66.096 49H62.0128L55.9759 38.4002V49H51.8694V31.9655H55.9759L62.0012 42.5653V31.9655H66.096V49ZM69.0085 49V31.9655H74.4956C76.0009 31.9655 77.3542 32.3087 78.5553 32.9951C79.7565 33.6736 80.6924 34.6369 81.3632 35.8849C82.0418 37.125 82.385 38.5172 82.3928 40.0616V40.8454C82.3928 42.4054 82.0613 43.8054 81.3983 45.0456C80.7431 46.2779 79.815 47.2451 78.6138 47.947C77.4205 48.6412 76.0867 48.9922 74.6126 49H69.0085ZM73.1151 35.1361V45.8411H74.5424C75.7202 45.8411 76.6249 45.4239 77.2567 44.5893C77.8885 43.7469 78.2044 42.499 78.2044 40.8454V40.1084C78.2044 38.4626 77.8885 37.2225 77.2567 36.3879C76.6249 35.5534 75.7046 35.1361 74.4956 35.1361H73.1151ZM99.2394 40.8337C99.2394 42.4951 98.9314 43.9653 98.3152 45.2445C97.699 46.5236 96.8216 47.5103 95.6828 48.2044C94.5518 48.8908 93.261 49.234 91.8103 49.234C90.3595 49.234 89.0726 48.9025 87.9494 48.2395C86.8263 47.5688 85.9488 46.6133 85.317 45.3732C84.6931 44.133 84.3655 42.7096 84.3343 41.1028V40.1435C84.3343 38.4743 84.6385 37.0041 85.2468 35.7328C85.863 34.4536 86.7405 33.467 87.8792 32.7728C89.0258 32.0786 90.3283 31.7315 91.7869 31.7315C93.2298 31.7315 94.5167 32.0747 95.6477 32.7611C96.7787 33.4475 97.6561 34.4263 98.2801 35.6977C98.9119 36.9612 99.2317 38.4119 99.2394 40.0499V40.8337ZM95.0627 40.1201C95.0627 38.4275 94.778 37.1445 94.2087 36.2709C93.6471 35.3896 92.8398 34.9489 91.7869 34.9489C89.7278 34.9489 88.6397 36.4932 88.5227 39.5819L88.511 40.8337C88.511 42.5029 88.7879 43.7859 89.3417 44.6829C89.8954 45.5798 90.7183 46.0283 91.8103 46.0283C92.8476 46.0283 93.6471 45.5876 94.2087 44.7063C94.7702 43.8249 95.0549 42.5575 95.0627 40.9039V40.1201ZM115.899 49H111.816L105.779 38.4002V49H101.672V31.9655H105.779L111.804 42.5653V31.9655H115.899V49ZM129.376 41.7814H122.918V45.8411H130.546V49H118.811V31.9655H130.569V35.1361H122.918V38.7278H129.376V41.7814ZM141.321 44.4723C141.321 43.8717 141.106 43.4037 140.677 43.0683C140.256 42.733 139.511 42.3859 138.443 42.0271C137.374 41.6683 136.501 41.3212 135.822 40.9858C133.615 39.9017 132.511 38.4119 132.511 36.5166C132.511 35.5729 132.784 34.7422 133.33 34.0246C133.884 33.2993 134.664 32.7377 135.67 32.3399C136.676 31.9343 137.807 31.7315 139.063 31.7315C140.287 31.7315 141.383 31.9499 142.35 32.3867C143.325 32.8235 144.082 33.4475 144.62 34.2586C145.158 35.062 145.427 35.9823 145.427 37.0197H141.332C141.332 36.3255 141.118 35.7874 140.689 35.4052C140.268 35.023 139.694 34.8319 138.969 34.8319C138.236 34.8319 137.655 34.9957 137.226 35.3233C136.805 35.6431 136.594 36.0525 136.594 36.5517C136.594 36.9885 136.828 37.3863 137.296 37.7451C137.764 38.0961 138.587 38.4626 139.765 38.8448C140.942 39.2192 141.91 39.6248 142.666 40.0616C144.507 41.1223 145.427 42.5848 145.427 44.4489C145.427 45.9386 144.866 47.1086 143.743 47.9587C142.619 48.8089 141.079 49.234 139.121 49.234C137.741 49.234 136.489 48.9883 135.366 48.4969C134.25 47.9977 133.408 47.3192 132.839 46.4612C132.277 45.5954 131.996 44.601 131.996 43.4778H136.114C136.114 44.3904 136.348 45.0651 136.816 45.5018C137.292 45.9308 138.06 46.1453 139.121 46.1453C139.8 46.1453 140.334 46.001 140.724 45.7124C141.122 45.4161 141.321 45.0027 141.321 44.4723ZM152.224 49H148.129V31.9655H152.224V49ZM165.28 45.8177H159.653L158.67 49H154.283L160.53 31.9655H164.391L170.685 49H166.275L165.28 45.8177ZM160.635 42.6472H164.297L162.461 36.7389L160.635 42.6472Z" fill="white"/>
<defs>
<clipPath id="clip0_0_322">
<rect width="49.0255" height="49" fill="white" transform="translate(0.0145264)"/>
</clipPath>
</defs>
</svg>
